name ./resultDataOpenSim/trcMotMarkerGrf/sub09/grf-05-06.mot
datacolumns 19
datarows 30
range 0.50800000 0.62400000
endheader

                time	     ground_force_vx	     ground_force_vy	     ground_force_vz	     ground_force_px	     ground_force_py	     ground_force_pz	   l_ground_force_vx	   l_ground_force_vy	   l_ground_force_vz	   l_ground_force_px	   l_ground_force_py	   l_ground_force_pz	     ground_torque_x	     ground_torque_y	     ground_torque_z	   l_ground_torque_x	   l_ground_torque_y	   l_ground_torque_z	
          0.50800000	          1.32208897	        343.31442344	        -12.05817788	         -0.64432597	          0.00000000	          0.09770573	          0.00000000	          0.00000000	          0.00000000	          0.00000000	          0.00000000	          0.00000000	          0.00000000	          4.01435768	          0.00000000	          0.00000000	          0.00000000	          0.00000000	
          0.51200000	         -1.66320289	        353.70248112	        -11.97159551	         -0.64198196	          0.00000000	          0.09758161	          0.00000000	          0.00000000	          0.00000000	          0.00000000	          0.00000000	          0.00000000	          0.00000000	          4.26415876	          0.00000000	          0.00000000	          0.00000000	          0.00000000	
          0.51600000	         -3.86857447	        364.73370448	        -12.39939192	         -0.64003582	          0.00000000	          0.09754169	          0.00000000	          0.00000000	          0.00000000	          0.00000000	          0.00000000	          0.00000000	          0.00000000	          4.44381711	          0.00000000	          0.00000000	          0.00000000	          0.00000000	
          0.52000000	         -5.05240434	        376.43232046	        -13.31819202	         -0.63846859	          0.00000000	          0.09761099	          0.00000000	          0.00000000	          0.00000000	          0.00000000	          0.00000000	          0.00000000	          0.00000000	          4.55987008	          0.00000000	          0.00000000	          0.00000000	          0.00000000	
          0.52400000	         -5.10186152	        388.85050758	        -14.63611274	         -0.63727156	          0.00000000	          0.09778066	          0.00000000	          0.00000000	          0.00000000	          0.00000000	          0.00000000	          0.00000000	          0.00000000	          4.63207820	          0.00000000	          0.00000000	          0.00000000	          0.00000000	
          0.52800000	         -4.03659690	        402.04899673	        -16.22603097	         -0.63643409	          0.00000000	          0.09802816	          0.00000000	          0.00000000	          0.00000000	          0.00000000	          0.00000000	          0.00000000	          0.00000000	          4.68607023	          0.00000000	          0.00000000	          0.00000000	          0.00000000	
          0.53200000	         -1.98461138	        416.06013080	        -17.95930933	         -0.63590481	          0.00000000	          0.09833268	          0.00000000	          0.00000000	          0.00000000	          0.00000000	          0.00000000	          0.00000000	          0.00000000	          4.74508852	          0.00000000	          0.00000000	          0.00000000	          0.00000000	
          0.53600000	          0.86210711	        430.86457575	        -19.73182119	         -0.63560091	          0.00000000	          0.09867542	          0.00000000	          0.00000000	          0.00000000	          0.00000000	          0.00000000	          0.00000000	          0.00000000	          4.82321950	          0.00000000	          0.00000000	          0.00000000	          0.00000000	
          0.54000000	          4.30045701	        446.39724614	        -21.47741834	         -0.63542965	          0.00000000	          0.09902960	          0.00000000	          0.00000000	          0.00000000	          0.00000000	          0.00000000	          0.00000000	          0.00000000	          4.92194086	          0.00000000	          0.00000000	          0.00000000	          0.00000000	
          0.54400000	          8.16437031	        462.56366005	        -23.16907471	         -0.63532402	          0.00000000	          0.09936438	          0.00000000	          0.00000000	          0.00000000	          0.00000000	          0.00000000	          0.00000000	          0.00000000	          5.03072169	          0.00000000	          0.00000000	          0.00000000	          0.00000000	
          0.54800000	         12.35641790	        479.24613656	        -24.81063782	         -0.63525059	          0.00000000	          0.09965565	          0.00000000	          0.00000000	          0.00000000	          0.00000000	          0.00000000	          0.00000000	          0.00000000	          5.13121928	          0.00000000	          0.00000000	          0.00000000	          0.00000000	
          0.55200000	         16.85316546	        496.30366070	        -26.42192803	         -0.63519136	          0.00000000	          0.09988590	          0.00000000	          0.00000000	          0.00000000	          0.00000000	          0.00000000	          0.00000000	          0.00000000	          5.20370278	          0.00000000	          0.00000000	          0.00000000	          0.00000000	
          0.55600000	         21.68128355	        513.57782395	        -28.01852560	         -0.63513165	          0.00000000	          0.10004613	          0.00000000	          0.00000000	          0.00000000	          0.00000000	          0.00000000	          0.00000000	          0.00000000	          5.23387458	          0.00000000	          0.00000000	          0.00000000	          0.00000000	
          0.56000000	         26.87578310	        530.91061474	        -29.58844774	         -0.63505429	          0.00000000	          0.10013992	          0.00000000	          0.00000000	          0.00000000	          0.00000000	          0.00000000	          0.00000000	          0.00000000	          5.21826653	          0.00000000	          0.00000000	          0.00000000	          0.00000000	
          0.56400000	         32.44197318	        548.17222500	        -31.07541303	         -0.63494251	          0.00000000	          0.10017644	          0.00000000	          0.00000000	          0.00000000	          0.00000000	          0.00000000	          0.00000000	          0.00000000	          5.16679519	          0.00000000	          0.00000000	          0.00000000	          0.00000000	
          0.56800000	         38.34019965	        565.28397563	        -32.38155322	         -0.63479671	          0.00000000	          0.10016016	          0.00000000	          0.00000000	          0.00000000	          0.00000000	          0.00000000	          0.00000000	          0.00000000	          5.10176506	          0.00000000	          0.00000000	          0.00000000	          0.00000000	
          0.57200000	         44.49747437	        582.21566991	        -33.38979469	         -0.63463983	          0.00000000	          0.10008865	          0.00000000	          0.00000000	          0.00000000	          0.00000000	          0.00000000	          0.00000000	          0.00000000	          5.05347446	          0.00000000	          0.00000000	          0.00000000	          0.00000000	
          0.57600000	         50.83528178	        598.95480881	        -33.99302959	         -0.63449971	          0.00000000	          0.09995887	          0.00000000	          0.00000000	          0.00000000	          0.00000000	          0.00000000	          0.00000000	          0.00000000	          5.05343198	          0.00000000	          0.00000000	          0.00000000	          0.00000000	
          0.58000000	         57.29819795	        615.47584325	        -34.12053749	         -0.63439076	          0.00000000	          0.09977698	          0.00000000	          0.00000000	          0.00000000	          0.00000000	          0.00000000	          0.00000000	          0.00000000	          5.12683067	          0.00000000	          0.00000000	          0.00000000	          0.00000000	
          0.58400000	         63.87218797	        631.73414796	        -33.76031484	         -0.63431402	          0.00000000	          0.09955905	          0.00000000	          0.00000000	          0.00000000	          0.00000000	          0.00000000	          0.00000000	          0.00000000	          5.28617292	          0.00000000	          0.00000000	          0.00000000	          0.00000000	
          0.58800000	         70.59126027	        647.67412032	        -32.97389662	         -0.63426814	          0.00000000	          0.09931892	          0.00000000	          0.00000000	          0.00000000	          0.00000000	          0.00000000	          0.00000000	          0.00000000	          5.52769782	          0.00000000	          0.00000000	          0.00000000	          0.00000000	
          0.59200000	         77.53458214	        663.23146214	        -31.89447596	         -0.63426158	          0.00000000	          0.09906951	          0.00000000	          0.00000000	          0.00000000	          0.00000000	          0.00000000	          0.00000000	          0.00000000	          5.83158466	          0.00000000	          0.00000000	          0.00000000	          0.00000000	
          0.59600000	         84.81358812	        678.32372203	        -30.70361422	         -0.63430232	          0.00000000	          0.09882643	          0.00000000	          0.00000000	          0.00000000	          0.00000000	          0.00000000	          0.00000000	          0.00000000	          6.16596146	          0.00000000	          0.00000000	          0.00000000	          0.00000000	
          0.60000000	         92.54781435	        692.83842249	        -29.59488931	         -0.63438651	          0.00000000	          0.09860248	          0.00000000	          0.00000000	          0.00000000	          0.00000000	          0.00000000	          0.00000000	          0.00000000	          6.49376168	          0.00000000	          0.00000000	          0.00000000	          0.00000000	
          0.60400000	        100.83047112	        706.63440279	        -28.73664095	         -0.63451232	          0.00000000	          0.09840351	          0.00000000	          0.00000000	          0.00000000	          0.00000000	          0.00000000	          0.00000000	          0.00000000	          6.78069050	          0.00000000	          0.00000000	          0.00000000	          0.00000000	
          0.60800000	        109.69235224	        719.55128314	        -28.24097680	         -0.63467593	          0.00000000	          0.09822898	          0.00000000	          0.00000000	          0.00000000	          0.00000000	          0.00000000	          0.00000000	          0.00000000	          7.00224414	          0.00000000	          0.00000000	          0.00000000	          0.00000000	
          0.61200000	        119.07579045	        731.41648768	        -28.14518467	         -0.63486544	          0.00000000	          0.09807957	          0.00000000	          0.00000000	          0.00000000	          0.00000000	          0.00000000	          0.00000000	          0.00000000	          7.14807392	          0.00000000	          0.00000000	          0.00000000	          0.00000000	
          0.61600000	        128.82997657	        742.05961733	        -28.40805200	         -0.63506691	          0.00000000	          0.09795309	          0.00000000	          0.00000000	          0.00000000	          0.00000000	          0.00000000	          0.00000000	          0.00000000	          7.22287206	          0.00000000	          0.00000000	          0.00000000	          0.00000000	
          0.62000000	        138.73413218	        751.33052963	        -28.91802117	         -0.63525481	          0.00000000	          0.09784540	          0.00000000	          0.00000000	          0.00000000	          0.00000000	          0.00000000	          0.00000000	          0.00000000	          7.24391106	          0.00000000	          0.00000000	          0.00000000	          0.00000000	
          0.62400000	        148.53862556	        759.10000154	        -29.51278211	         -0.63540279	          0.00000000	          0.09775023	          0.00000000	          0.00000000	          0.00000000	          0.00000000	          0.00000000	          0.00000000	          0.00000000	          7.23606085	          0.00000000	          0.00000000	          0.00000000	          0.00000000	
